<?xml version="1.0" encoding="UTF-8" standalone="no"?>
<!-- Created with Inkscape (http://www.inkscape.org/) -->

<svg
   width="128"
   height="128"
   viewBox="0 0 33.866667 33.866667"
   version="1.1"
   id="svg1"
   inkscape:version="1.4.2 (f4327f4, 2025-05-13)"
   sodipodi:docname="favicon.svg"
   inkscape:export-filename="rstr_client\favicon.svg"
   inkscape:export-xdpi="24"
   inkscape:export-ydpi="24"
   xmlns:inkscape="http://www.inkscape.org/namespaces/inkscape"
   xmlns:sodipodi="http://sodipodi.sourceforge.net/DTD/sodipodi-0.dtd"
   xmlns="http://www.w3.org/2000/svg"
   xmlns:svg="http://www.w3.org/2000/svg"
   xmlns:rdf="http://www.w3.org/1999/02/22-rdf-syntax-ns#"
   xmlns:cc="http://creativecommons.org/ns#"
   xmlns:dc="http://purl.org/dc/elements/1.1/">
  <title
     id="title83">rstr icon</title>
  <sodipodi:namedview
     id="namedview1"
     pagecolor="#505050"
     bordercolor="#ffffff"
     borderopacity="1"
     inkscape:showpageshadow="0"
     inkscape:pageopacity="0"
     inkscape:pagecheckerboard="1"
     inkscape:deskcolor="#505050"
     inkscape:document-units="mm"
     inkscape:zoom="2"
     inkscape:cx="-45.25"
     inkscape:cy="69.25"
     inkscape:window-width="1920"
     inkscape:window-height="1027"
     inkscape:window-x="1912"
     inkscape:window-y="-8"
     inkscape:window-maximized="1"
     inkscape:current-layer="layer1" />
  <defs
     id="defs1">
    <inkscape:path-effect
       effect="offset"
       id="path-effect86"
       is_visible="true"
       lpeversion="1.3"
       linejoin_type="miter"
       unit="mm"
       offset="1.1491389"
       miter_limit="10.1"
       attempt_force_join="false"
       update_on_knot_move="true" />
    <inkscape:path-effect
       effect="powerstroke"
       message=""
       id="path-effect84"
       is_visible="true"
       lpeversion="1.3"
       scale_width="0"
       interpolator_type="CentripetalCatmullRom"
       interpolator_beta="0.2"
       start_linecap_type="zerowidth"
       end_linecap_type="zerowidth"
       offset_points="36,0.57406002 | 76,0.57406002"
       linejoin_type="round"
       miter_limit="4"
       not_jump="false"
       sort_points="true" />
    <inkscape:path-effect
       effect="powerstroke"
       message=""
       id="path-effect82"
       is_visible="true"
       lpeversion="1.3"
       scale_width="2"
       interpolator_type="CentripetalCatmullRom"
       interpolator_beta="0.2"
       start_linecap_type="zerowidth"
       end_linecap_type="zerowidth"
       offset_points="36,0.1322915 | 76,0.1322915"
       linejoin_type="round"
       miter_limit="4"
       not_jump="false"
       sort_points="true" />
    <inkscape:path-effect
       effect="fill_between_many"
       method="bsplinespiro"
       autoreverse="false"
       close="false"
       join="false"
       linkedpaths="#path18,0,1"
       id="path-effect83" />
    <inkscape:path-effect
       effect="fill_between_many"
       method="bsplinespiro"
       autoreverse="false"
       close="false"
       join="false"
       linkedpaths="#path18,0,1"
       id="path-effect85" />
    <inkscape:path-effect
       effect="offset"
       id="path-effect86-4"
       is_visible="true"
       lpeversion="1.3"
       linejoin_type="miter"
       unit="mm"
       offset="1.1491389"
       miter_limit="10.1"
       attempt_force_join="false"
       update_on_knot_move="true" />
    <inkscape:path-effect
       effect="offset"
       id="path-effect86-5"
       is_visible="true"
       lpeversion="1.3"
       linejoin_type="miter"
       unit="mm"
       offset="1.1342733"
       miter_limit="10.1"
       attempt_force_join="false"
       update_on_knot_move="true" />
  </defs>
  <g
     inkscape:label="Layer 1"
     inkscape:groupmode="layer"
     id="layer1">
    <g
       id="g87">
      <circle
         style="display:inline;fill:#ffffff;stroke:none;stroke-width:0.21886;stroke-dasharray:none"
         id="path83"
         cx="16.933332"
         cy="16.933332"
         r="16.933332" />
      <path
         id="path18-1"
         style="display:none;fill:#5e5c64;fill-rule:nonzero;stroke:#5e5c64;stroke-width:0.851213;stroke-linecap:butt;stroke-linejoin:bevel;stroke-dasharray:none;stroke-opacity:1"
         d="m 27.013672,1.375 c -0.05738,-0.00216 -0.105661,3.331e-4 -0.140625,0.00195 -0.665245,0.030822 -1.079725,0.488391 -1.214844,0.6464844 -0.290751,0.2506746 -0.750916,0.4962637 -1.240234,0.6992188 -0.938455,0.3892432 -1.532198,0.5314615 -2.621094,0.8535156 -1.745595,0.4070447 -1.799999,0.4543609 -3.585938,0.7324218 -0.579378,0.090206 -1.18919,0.1572924 -1.824218,0.2421875 l -3.013672,0.4042969 5.091797,3.5878907 0.482422,-0.080078 c 1.377187,-0.2280793 2.774729,-0.4533622 4.171875,-0.7011719 -0.973503,1.5909628 -2.024684,3.1428123 -3.138672,4.6269533 -0.464132,0.618352 -0.929774,1.229046 -1.404297,1.826172 C 18.409183,13.985697 18.230384,13.735348 18.033203,13.453125 16.797056,11.683834 16.756028,11.490213 15.796875,9.6835938 15.201668,8.5624463 15.403558,8.9570632 14.998047,8.1523438 L 14.806641,7.7714844 6.6132812,4.1191406 9.4101563,7.8125 c 0.4726138,0.6242886 0.8637697,1.1356577 1.3085937,1.7714844 1.921759,2.7469366 0.702401,1.1661126 2.949219,4.1992186 1.255469,1.694827 1.617835,2.145206 2.501953,3.220703 -0.448456,0.486888 -0.903848,0.977917 -1.359375,1.480469 -0.401018,0.368981 -0.802189,0.745607 -1.189453,1.109375 -0.02026,0.01903 -0.04031,0.03959 -0.06055,0.05859 -0.311009,-0.497422 -0.613636,-0.973972 -0.880859,-1.44336 -1.03044,-1.810004 -1.87551,-3.713931 -2.400391,-5.683593 L 10.136719,11.984375 2.8535156,8.6289063 4.5058594,11.746094 c 1.1027427,2.078698 2.1915394,4.353467 3.4492187,6.46875 0.3944394,0.663404 0.841265,1.350636 1.2226563,1.96289 l 0.00977,0.01367 0.00977,0.01563 c 0.4552321,0.684789 0.9190954,1.365266 1.3964844,2.041016 -0.553441,0.437827 -1.1226617,0.869141 -1.6992187,1.300781 -1.7364759,1.300016 -3.533085,2.48373 -5.4375,3.382813 -0.1572646,0.07425 -0.3817383,0.154998 -0.6601563,0.267578 l -2.12304688,0.857422 5.98046878,3.873046 0.6796875,-0.736328 c 0.9066018,-0.982585 1.8617996,-1.933893 2.8398436,-2.876953 0.588947,-0.56788 1.363714,-1.255348 2,-1.898437 0.297775,-0.300959 0.59241,-0.604033 0.884766,-0.910157 0.05307,0.06498 0.106745,0.12866 0.160156,0.19336 0.405265,0.490921 0.742056,0.856713 1.132813,1.289062 l 0.0098,0.0098 0.0098,0.0098 c 0.310205,0.328061 0.665675,0.714608 1.03125,1.066406 0.06161,0.05929 0.359662,0.362806 0.652343,0.53125 1.186318,0.682755 2.40193,1.353737 3.576172,2.015625 l 0.158203,0.08984 0.175782,0.03711 c 0.400853,0.08701 0.215525,0.05092 0.613281,0.123047 l 3.636719,0.660156 -2.566407,-2.660156 c -0.337433,-0.349614 -0.842892,-0.856228 -1.039062,-1.039063 l -0.04492,-0.04297 -0.05078,-0.03711 c -0.228011,-0.171882 -0.694467,-0.664125 -1.111328,-1.027344 l -0.0293,-0.02734 c -0.456673,-0.446593 -0.836337,-0.812143 -1.257813,-1.257813 -0.855726,-0.904845 -1.671039,-1.846535 -2.441406,-2.822265 0.114375,-0.133008 0.226869,-0.264487 0.339844,-0.396485 0.462577,-0.540466 0.919354,-1.080101 1.375,-1.607422 0.316743,-0.364506 0.635185,-0.72804 0.955078,-1.089843 1.433007,1.561393 3.000451,3.102601 4.789062,4.367187 l 0.04297,0.03125 0.04687,0.02734 c 1.191327,0.690171 2.381938,1.378768 3.572266,2.068359 l 1.980469,1.146485 -0.195313,-2.279297 c -0.03956,-0.458828 -0.140697,-1.368632 -0.382812,-1.835938 -0.05794,-0.111834 -0.180352,-0.33709 -0.462891,-0.521484 -1.015127,-0.662524 -1.981121,-1.44418 -2.916016,-2.28125 -0.520023,-0.465608 -1.347493,-0.972186 -1.77539,-1.304688 -0.672658,-0.522694 -1.282852,-0.920907 -1.701172,-1.349609 -0.221916,-0.260672 -0.424344,-0.497043 -0.611328,-0.714844 2.001571,-2.178735 4.054365,-4.315922 6.134765,-6.429687 0.345578,-0.35112 0.693791,-0.7015717 1.042969,-1.0527346 0.0872,0.3416916 0.192938,0.7581276 0.339844,1.3242186 v 0.0039 c 0.001,0.0039 0.0029,0.0078 0.0039,0.01172 0.399607,1.731433 0.715398,3.47914 0.933594,5.236328 0.04104,0.330449 0.07049,0.683945 0.109375,1.058594 l 0.06836,0.660156 5.861328,2.84375 -0.742187,-2.570312 C 33.829684,15.706067 33.195762,13.461251 32.701172,11.207031 32.233748,9.0624357 32.210637,9.1216841 31.890625,7.0566406 31.818171,6.5891029 31.752633,6.1264401 31.703125,5.6679687 31.654416,5.2168835 31.64088,4.8502247 31.691406,4.5664062 L 31.845703,3.6972656 27.388672,1.4257812 27.208984,1.3945312 C 27.137344,1.3825201 27.071048,1.3771593 27.013672,1.375 Z"
         sodipodi:nodetypes="cscscccccsscssccssccccsccsccssccsscscssccccscccccsssccssccscccssccccc"
         inkscape:linked-fill="path85"
         transform="matrix(0.9381045,0,0,0.96629848,1.0757703,0.55719266)"
         inkscape:path-effect="#path-effect86-5"
         inkscape:original-d="m 26.508976,2.8597738 c -0.461077,0.4249399 -1.062214,0.7252656 -1.633492,0.9622151 -1.019051,0.4226721 -1.686311,0.5846925 -2.773474,0.9069214 -1.764881,0.4110755 -1.89047,0.4742748 -3.70675,0.7570598 -0.614668,0.0957 -1.23343,0.1645835 -1.850017,0.2470133 L 18.75131,7.286377 c 1.884138,-0.3120366 3.77035,-0.61111 5.646167,-0.9710002 0.41721,-0.08043 0.75052,-0.1429589 1.046965,-0.199471 -0.140276,0.2624936 -0.280266,0.5247952 -0.428398,0.7828979 -1.229306,2.1419357 -2.601047,4.2304773 -4.082955,6.2047893 -0.769435,1.025101 -1.55106,2.042542 -2.380216,3.019971 -0.0028,0.0033 -0.0054,0.0065 -0.0083,0.0098 -0.444785,-0.5509 -0.891189,-1.142458 -1.488798,-1.997811 -1.254344,-1.795336 -1.362334,-2.103056 -2.31252,-3.892785 C 14.149822,9.1249628 14.337432,9.4899033 13.933,8.687325 L 10.359058,7.0941406 c 0.469598,0.6203048 0.87416,1.1472123 1.335835,1.8071249 1.904877,2.7228055 0.722931,1.1943855 2.930054,4.1739055 1.506322,2.033467 1.704489,2.242372 3.121257,3.969783 -0.689038,0.766592 -1.398625,1.515694 -2.090312,2.279965 -0.776252,0.712911 -1.53494,1.445824 -2.314587,2.154907 C 13.161853,21.223633 12.98549,20.965016 12.812138,20.704679 12.422832,20.069384 12.01288,19.446364 11.64425,18.798853 10.574663,16.920085 9.6860792,14.923091 9.1286418,12.831258 L 5.5593506,11.186914 c 1.1363105,2.141974 2.1789811,4.331394 3.4194295,6.417696 0.389644,0.655339 0.806624,1.294347 1.2097449,1.941484 0.655459,0.985982 1.328387,1.962428 2.0283,2.919201 -0.845013,0.708883 -1.724608,1.376554 -2.6075924,2.037602 -1.773869,1.32801 -3.6360598,2.559519 -5.6435832,3.50728 C 3.7308949,28.121006 3.4844,28.204832 3.2437297,28.302148 l 3.2153076,2.082561 c 0.9297728,-1.007698 1.902402,-1.974908 2.8892293,-2.926437 0.6547094,-0.63129 1.3390134,-1.231921 1.9786904,-1.878438 0.613642,-0.620203 1.215921,-1.252218 1.806608,-1.894458 0.32788,0.424368 0.661737,0.843848 1.00304,1.257288 0.384324,0.465555 0.701493,0.807992 1.099158,1.247985 0.327128,0.345958 0.649996,0.696521 0.993221,1.026811 0.09392,0.09038 0.303271,0.28983 0.420129,0.357084 1.183486,0.681125 2.378725,1.34074 3.568258,2.011247 0.385275,0.08363 0.193955,0.04588 0.573608,0.114722 0,0 -0.667193,-0.690907 -0.993221,-0.994772 -0.438045,-0.330212 -0.82091,-0.782186 -1.228866,-1.127579 -0.465122,-0.455118 -0.865714,-0.839738 -1.318265,-1.318266 -1.105747,-1.169217 -2.14864,-2.399561 -3.115572,-3.686597 0.795717,-0.903598 1.56817,-1.827785 2.355411,-2.738851 0.610964,-0.703094 1.227444,-1.40083 1.8495,-2.093929 1.667483,1.882979 3.420045,3.722743 5.479769,5.179012 1.190972,0.689965 2.382452,1.379676 3.573425,2.069641 0,0 -0.115533,-1.335684 -0.309069,-1.461992 -1.084463,-0.707776 -2.096584,-1.529763 -3.060278,-2.392619 -0.503651,-0.450949 -1.096966,-0.772703 -1.712031,-1.250644 -0.623374,-0.484398 -1.300833,-0.913751 -1.852566,-1.490208 -0.529571,-0.622362 -0.943778,-1.099178 -1.317749,-1.540474 2.238493,-2.462722 4.540061,-4.867974 6.874516,-7.2398683 0.751929,-0.7639878 1.510405,-1.5211701 2.264978,-2.282548 0.0713,-0.071942 0.142626,-0.1442153 0.213941,-0.2165243 0.379476,1.1707857 0.440707,1.5149406 0.910022,3.3227946 0.41157,1.778646 0.737235,3.57751 0.962215,5.389335 0.04471,0.360042 0.0752,0.721753 0.112654,1.082621 L 33.3375,18.294491 C 32.68351,16.03138 32.042705,13.763418 31.53761,11.461316 31.072819,9.3287995 31.034379,9.3169763 30.712337,7.2388346 30.637991,6.7590911 30.571704,6.2776589 30.519584,5.7949951 30.467871,5.3160895 30.433773,4.8335769 30.518551,4.3573568 L 27.011788,2.5709025 c -0.234597,-0.039332 -0.362283,0.1315142 -0.502812,0.2888713 z m -6.24303,26.1234702 c -19.95711822,-29.16863081 -19.95711822,-29.16863081 0,0 z" />
    </g>
    <path
       id="path18"
       style="fill:#1a5fb4;fill-rule:nonzero;stroke:#ffffff;stroke-width:0.851213;stroke-linecap:butt;stroke-linejoin:bevel;stroke-dasharray:none;stroke-opacity:1"
       d="m 27.013672,1.375 c -0.05738,-0.00216 -0.105661,3.331e-4 -0.140625,0.00195 -0.665245,0.030822 -1.079725,0.488391 -1.214844,0.6464844 -0.290751,0.2506746 -0.750916,0.4962637 -1.240234,0.6992188 -0.938455,0.3892432 -1.532198,0.5314615 -2.621094,0.8535156 -1.745595,0.4070447 -1.799999,0.4543609 -3.585938,0.7324218 -0.579378,0.090206 -1.18919,0.1572924 -1.824218,0.2421875 l -3.013672,0.4042969 5.091797,3.5878907 0.482422,-0.080078 c 1.377187,-0.2280793 2.774729,-0.4533622 4.171875,-0.7011719 -0.973503,1.5909629 -2.024684,3.1428123 -3.138672,4.6269533 -0.464132,0.618352 -0.929774,1.229046 -1.404297,1.826172 C 18.409183,13.985697 18.230384,13.735348 18.033203,13.453125 16.797056,11.683834 16.756028,11.490213 15.796875,9.6835938 15.201668,8.5624463 15.403558,8.9570632 14.998047,8.1523438 L 14.806641,7.7714844 6.6132812,4.1191406 9.4101563,7.8125 c 0.4726138,0.6242886 0.8637697,1.1356577 1.3085937,1.7714844 1.921759,2.7469366 0.702401,1.1661126 2.949219,4.1992186 1.255469,1.694827 1.617835,2.145206 2.501953,3.220703 -0.448456,0.486888 -0.903848,0.977917 -1.359375,1.480469 -0.401018,0.368981 -0.802189,0.745607 -1.189453,1.109375 -0.02026,0.01903 -0.04031,0.03959 -0.06055,0.05859 -0.311009,-0.497422 -0.613636,-0.973972 -0.880859,-1.44336 -1.03044,-1.810004 -1.87551,-3.713931 -2.400391,-5.683593 L 10.136719,11.984375 2.8535156,8.6289063 4.5058594,11.746094 c 1.1027427,2.078698 2.1915394,4.353467 3.4492187,6.46875 0.3944393,0.663404 0.841265,1.350636 1.2226563,1.96289 l 0.00977,0.01367 0.00977,0.01563 c 0.4552321,0.684789 0.9190954,1.365266 1.3964844,2.041016 -0.553441,0.437827 -1.1226617,0.869141 -1.6992187,1.300781 -1.7364759,1.300016 -3.533085,2.48373 -5.4375,3.382813 -0.1572646,0.07425 -0.3817383,0.154998 -0.6601563,0.267578 l -2.12304688,0.857422 5.98046878,3.873046 0.6796875,-0.736328 c 0.9066018,-0.982585 1.8617996,-1.933893 2.8398436,-2.876953 0.588947,-0.56788 1.363714,-1.255348 2,-1.898437 0.297775,-0.300959 0.59241,-0.604033 0.884766,-0.910157 0.05307,0.06498 0.106745,0.12866 0.160156,0.19336 0.405265,0.490921 0.742056,0.856713 1.132813,1.289062 l 0.0098,0.0098 0.0098,0.0098 c 0.310205,0.328061 0.665675,0.714608 1.03125,1.066406 0.06161,0.05929 0.359662,0.362806 0.652343,0.53125 1.186318,0.682755 2.40193,1.353737 3.576172,2.015625 l 0.158203,0.08984 0.175782,0.03711 c 0.400853,0.08701 0.215525,0.05092 0.613281,0.123047 l 3.636719,0.660156 -2.566407,-2.660156 c -0.337433,-0.349614 -0.842892,-0.856228 -1.039062,-1.039063 l -0.04492,-0.04297 -0.05078,-0.03711 c -0.228011,-0.171882 -0.694467,-0.664125 -1.111328,-1.027344 l -0.0293,-0.02734 c -0.456673,-0.446593 -0.836337,-0.812143 -1.257813,-1.257813 -0.855726,-0.904845 -1.671039,-1.846535 -2.441406,-2.822265 0.114375,-0.133008 0.226869,-0.264487 0.339844,-0.396485 0.462577,-0.540466 0.919354,-1.080101 1.375,-1.607422 0.316743,-0.364506 0.635185,-0.72804 0.955078,-1.089843 1.433007,1.561393 3.000451,3.102601 4.789062,4.367187 l 0.04297,0.03125 0.04687,0.02734 c 1.191327,0.690171 2.381938,1.378768 3.572266,2.068359 l 1.980469,1.146485 -0.195313,-2.279297 c -0.03956,-0.458828 -0.140697,-1.368632 -0.382812,-1.835938 -0.05794,-0.111834 -0.180352,-0.33709 -0.462891,-0.521484 -1.015127,-0.662524 -1.981121,-1.44418 -2.916016,-2.28125 -0.520023,-0.465608 -1.347493,-0.972186 -1.77539,-1.304688 -0.672658,-0.522694 -1.282852,-0.920907 -1.701172,-1.349609 -0.221916,-0.260672 -0.424343,-0.497043 -0.611328,-0.714844 2.001571,-2.178735 4.054365,-4.315922 6.134765,-6.429687 0.345578,-0.35112 0.693791,-0.7015716 1.042969,-1.0527346 0.0872,0.3416916 0.192937,0.7581276 0.339844,1.3242186 v 0.0039 c 0.001,0.0039 0.0029,0.0078 0.0039,0.01172 0.399607,1.731433 0.715398,3.47914 0.933594,5.236328 0.04104,0.330449 0.07049,0.683945 0.109375,1.058594 l 0.06836,0.660156 5.861328,2.84375 -0.742187,-2.570312 C 33.829684,15.706067 33.195762,13.461251 32.701172,11.207031 32.233748,9.0624357 32.210637,9.1216841 31.890625,7.0566406 31.818171,6.5891029 31.752633,6.1264401 31.703125,5.6679687 31.654416,5.2168835 31.64088,4.8502247 31.691406,4.5664062 L 31.845703,3.6972656 27.388672,1.4257812 27.208984,1.3945312 C 27.137344,1.3825201 27.071048,1.3771593 27.013672,1.375 Z"
       sodipodi:nodetypes="cscscccccsscssccssccccsccsccssccsscscssccccscccccsssccssccscccssccccc"
       inkscape:linked-fill="path85"
       transform="matrix(0.95039918,0,0,0.97896267,-0.79046395,-0.17661264)"
       inkscape:path-effect="#path-effect86"
       inkscape:original-d="m 26.508976,2.8597738 c -0.461077,0.4249399 -1.062214,0.7252656 -1.633492,0.9622151 -1.019051,0.4226721 -1.686311,0.5846925 -2.773474,0.9069214 -1.764881,0.4110755 -1.89047,0.4742748 -3.70675,0.7570598 -0.614668,0.0957 -1.23343,0.1645835 -1.850017,0.2470133 L 18.75131,7.286377 c 1.884138,-0.3120366 3.77035,-0.61111 5.646167,-0.9710002 0.41721,-0.08043 0.75052,-0.1429589 1.046965,-0.199471 -0.140276,0.2624936 -0.280266,0.5247952 -0.428398,0.7828979 -1.229306,2.1419357 -2.601047,4.2304773 -4.082955,6.2047893 -0.769435,1.025101 -1.55106,2.042542 -2.380216,3.019971 -0.0028,0.0033 -0.0054,0.0065 -0.0083,0.0098 -0.444785,-0.5509 -0.891189,-1.142458 -1.488798,-1.997811 -1.254344,-1.795336 -1.362334,-2.103056 -2.31252,-3.892785 C 14.149822,9.1249628 14.337432,9.4899033 13.933,8.687325 L 10.359058,7.0941406 c 0.469598,0.6203048 0.87416,1.1472123 1.335835,1.8071249 1.904877,2.7228055 0.722931,1.1943855 2.930054,4.1739055 1.506322,2.033467 1.704489,2.242372 3.121257,3.969783 -0.689038,0.766592 -1.398625,1.515694 -2.090312,2.279965 -0.776252,0.712911 -1.53494,1.445824 -2.314587,2.154907 C 13.161853,21.223633 12.98549,20.965016 12.812138,20.704679 12.422832,20.069384 12.01288,19.446364 11.64425,18.798853 10.574663,16.920085 9.6860792,14.923091 9.1286418,12.831258 L 5.5593506,11.186914 c 1.1363105,2.141974 2.1789811,4.331394 3.4194295,6.417696 0.389644,0.655339 0.806624,1.294347 1.2097449,1.941484 0.655459,0.985982 1.328387,1.962428 2.0283,2.919201 -0.845013,0.708883 -1.724608,1.376554 -2.6075924,2.037602 -1.773869,1.32801 -3.6360598,2.559519 -5.6435832,3.50728 C 3.7308949,28.121006 3.4844,28.204832 3.2437297,28.302148 l 3.2153076,2.082561 c 0.9297728,-1.007698 1.902402,-1.974908 2.8892293,-2.926437 0.6547094,-0.63129 1.3390134,-1.231921 1.9786904,-1.878438 0.613642,-0.620203 1.215921,-1.252218 1.806608,-1.894458 0.32788,0.424368 0.661737,0.843848 1.00304,1.257288 0.384324,0.465555 0.701493,0.807992 1.099158,1.247985 0.327128,0.345958 0.649996,0.696521 0.993221,1.026811 0.09392,0.09038 0.303271,0.28983 0.420129,0.357084 1.183486,0.681125 2.378725,1.34074 3.568258,2.011247 0.385275,0.08363 0.193955,0.04588 0.573608,0.114722 0,0 -0.667193,-0.690907 -0.993221,-0.994772 -0.438045,-0.330212 -0.82091,-0.782186 -1.228866,-1.127579 -0.465122,-0.455118 -0.865714,-0.839738 -1.318265,-1.318266 -1.105747,-1.169217 -2.14864,-2.399561 -3.115572,-3.686597 0.795717,-0.903598 1.56817,-1.827785 2.355411,-2.738851 0.610964,-0.703094 1.227444,-1.40083 1.8495,-2.093929 1.667483,1.882979 3.420045,3.722743 5.479769,5.179012 1.190972,0.689965 2.382452,1.379676 3.573425,2.069641 0,0 -0.115533,-1.335684 -0.309069,-1.461992 -1.084463,-0.707776 -2.096584,-1.529763 -3.060278,-2.392619 -0.503651,-0.450949 -1.096966,-0.772703 -1.712031,-1.250644 -0.623374,-0.484398 -1.300833,-0.913751 -1.852566,-1.490208 -0.529571,-0.622362 -0.943778,-1.099178 -1.317749,-1.540474 2.238493,-2.462722 4.540061,-4.867974 6.874516,-7.2398683 0.751929,-0.7639878 1.510405,-1.5211701 2.264978,-2.282548 0.0713,-0.071942 0.142626,-0.1442153 0.213941,-0.2165243 0.379476,1.1707857 0.440707,1.5149406 0.910022,3.3227946 0.41157,1.778646 0.737235,3.57751 0.962215,5.389335 0.04471,0.360042 0.0752,0.721753 0.112654,1.082621 L 33.3375,18.294491 C 32.68351,16.03138 32.042705,13.763418 31.53761,11.461316 31.072819,9.3287995 31.034379,9.3169763 30.712337,7.2388346 30.637991,6.7590911 30.571704,6.2776589 30.519584,5.7949951 30.467871,5.3160895 30.433773,4.8335769 30.518551,4.3573568 L 27.011788,2.5709025 c -0.234597,-0.039332 -0.362283,0.1315142 -0.502812,0.2888713 z m -6.24303,26.1234702 c -19.95711822,-29.16863081 -19.95711822,-29.16863081 0,0 z" />
  </g>
  <metadata
     id="metadata83">
    <rdf:RDF>
      <cc:Work
         rdf:about="">
        <dc:title>rstr icon</dc:title>
      </cc:Work>
    </rdf:RDF>
  </metadata>
</svg>
