<?xml version="1.0" encoding="UTF-8" standalone="no"?>
<svg
   shape-rendering="geometricPrecision"
   text-rendering="geometricPrecision"
   image-rendering="optimizeQuality"
   fill-rule="evenodd"
   clip-rule="evenodd"
   viewBox="0 0 440 512.01"
   version="1.1"
   id="svg1"
   width="440"
   height="512.01001"
   xml:space="preserve"
   xmlns="http://www.w3.org/2000/svg"
   xmlns:svg="http://www.w3.org/2000/svg"><defs
     id="defs1"><clipPath
       clipPathUnits="userSpaceOnUse"
       id="clipPath3"><circle
         style="display:none;fill:#ffffff;stroke-width:8.63912;stroke-linejoin:bevel"
         id="circle3"
         cx="310"
         cy="400"
         r="130"
         d="M 440,400 A 130,130 0 0 1 310,530 130,130 0 0 1 180,400 130,130 0 0 1 310,270 130,130 0 0 1 440,400 Z" /><path
         id="lpe_path-effect3"
         style="fill:#ffffff;stroke-width:8.63912;stroke-linejoin:bevel"
         class="powerclip"
         d="M -5,35 H 368.86008 V 495 H -5 Z M 440,400 A 130,130 0 0 0 310,270 130,130 0 0 0 180,400 130,130 0 0 0 310,530 130,130 0 0 0 440,400 Z" /></clipPath><clipPath
       clipPathUnits="userSpaceOnUse"
       id="clipPath5"><path
         d="m 289.74563,377.6811 a 13.292327,13.292327 0 0 0 -18.61671,18.95181 l 37.36373,36.74937 a 13.283019,13.283019 0 0 0 18.6167,0 l 36.62837,-36.01401 a 13.283019,13.283019 0 0 0 -18.61671,-18.9425 l -14.29763,14.03699 -0.26994,-56.46447 a 13.28345,13.28345 0 1 0 -26.56603,0.21409 l 0.26063,55.7105 z"
         id="path6"
         style="display:none;fill:#57e389;stroke-width:0.930835" /><path
         id="lpe_path-effect6"
         style="fill:#57e389;stroke-width:0.930835"
         class="powerclip"
         d="m 197.5,260 h 240 v 240 h -240 z m 92.24563,117.6811 a 13.292327,13.292327 0 0 0 -18.61671,18.95181 l 37.36373,36.74937 a 13.283019,13.283019 0 0 0 18.6167,0 l 36.62837,-36.01401 a 13.283019,13.283019 0 0 0 -18.61671,-18.9425 l -14.29763,14.03699 -0.26994,-56.46447 a 13.28345,13.28345 0 1 0 -26.56603,0.21409 l 0.26063,55.7105 z" /></clipPath><clipPath
       clipPathUnits="userSpaceOnUse"
       id="clipPath7"><path
         d="m 345.25453,382.32027 a 13.292327,13.292327 0 0 0 18.61671,-18.95181 l -37.36373,-36.74937 a 13.283019,13.283019 0 0 0 -18.6167,0 l -36.62837,36.01401 a 13.283019,13.283019 0 0 0 18.61671,18.9425 l 14.29763,-14.037 0.26994,56.46448 a 13.283451,13.283451 0 1 0 26.56604,-0.21409 l -0.26064,-55.7105 z"
         id="path7"
         style="display:none;fill:#e01b24;stroke-width:0.930835" /><path
         id="lpe_path-effect7"
         style="fill:#e01b24;stroke-width:0.930835"
         class="powerclip"
         d="m 197.5,260 h 240 v 240 h -240 z m 147.75453,122.32027 a 13.292327,13.292327 0 0 0 18.61671,-18.95181 l -37.36373,-36.74937 a 13.283019,13.283019 0 0 0 -18.6167,0 l -36.62837,36.01401 a 13.283019,13.283019 0 0 0 18.61671,18.9425 l 14.29763,-14.037 0.26994,56.46448 a 13.283451,13.283451 0 1 0 26.56604,-0.21409 l -0.26064,-55.7105 z" /></clipPath></defs><path
     d="M 31.596063,40 H 219.11584 v 128.93303 c 0,4.84268 3.92863,8.77131 8.77131,8.77131 h 135.97293 v 280.70839 c 0,8.63948 -3.55071,16.5319 -9.27228,22.27105 l -0.0703,0.0703 C 348.77834,486.45808 340.9035,490 332.27281,490 H 31.596063 C 22.895061,490 14.993848,486.44929 9.2722798,480.72772 3.5507119,475.00615 0,467.10494 0,458.41273 V 71.587274 C 0,62.895061 3.5507119,54.993848 9.2722798,49.27228 14.993848,43.550712 22.895061,40 31.596063,40 Z m 205.071187,1.959923 a 11.601336,11.601336 0 0 1 2.18844,1.907189 L 358.86799,160.15293 H 236.66725 Z M 80.251362,408.89612 c -4.851467,0 -8.780102,-3.92864 -8.780102,-8.77132 0,-4.84268 3.928635,-8.7801 8.780102,-8.7801 H 283.60872 c 4.85147,0 8.7801,3.93742 8.7801,8.7801 0,4.84268 -3.92863,8.77132 -8.7801,8.77132 z m 0,-67.10319 c -4.851467,0 -8.780102,-3.92863 -8.780102,-8.77131 0,-4.85147 3.928635,-8.7801 8.780102,-8.7801 H 280.44472 c 4.85147,0 8.7801,3.92863 8.7801,8.7801 0,4.84268 -3.92863,8.77131 -8.7801,8.77131 z m 0,-67.10318 c -4.851467,0 -8.780102,-3.92863 -8.780102,-8.7801 0,-4.84268 3.928635,-8.77131 8.780102,-8.77131 H 242.23941 c 4.84268,0 8.7801,3.92863 8.7801,8.77131 0,4.85147 -3.93742,8.7801 -8.7801,8.7801 z m 0,-67.11197 c -4.851467,0 -8.780102,-3.92863 -8.780102,-8.77131 0,-4.85147 3.928635,-8.7801 8.780102,-8.7801 h 90.437688 c 4.85147,0 8.7801,3.92863 8.7801,8.7801 0,4.84268 -3.92863,8.77131 -8.7801,8.77131 z m 0,-67.10318 c -4.851467,0 -8.780102,-3.92863 -8.780102,-8.7801 0,-4.84268 3.928635,-8.77131 8.780102,-8.77131 h 48.699248 c 4.85146,0 8.7801,3.92863 8.7801,8.77131 0,4.85147 -3.92864,8.7801 -8.7801,8.7801 z"
     id="path1"
     style="stroke-width:0.878889"
     clip-path="url(#clipPath3)"
     transform="translate(7.5,-23)" /><g
     id="layer2"
     style="display:none"><circle
       style="fill:#000000;stroke-width:6.83175;stroke-linejoin:bevel"
       id="path3-7"
       cx="317.5"
       cy="380"
       r="115" /><path
       d="m 289.74563,377.6811 a 13.292327,13.292327 0 0 0 -18.61671,18.95181 l 37.36373,36.74937 a 13.283019,13.283019 0 0 0 18.6167,0 l 36.62837,-36.01401 a 13.283019,13.283019 0 0 0 -18.61671,-18.9425 l -14.29763,14.03699 -0.26994,-56.46447 a 13.28345,13.28345 0 1 0 -26.56603,0.21409 l 0.26063,55.7105 z"
       id="path1-4"
       style="fill:#57e389;stroke-width:0.930835" /></g><g
     id="g5"
     style="display:inline"><path
       style="fill:#000000;stroke-width:6.83175;stroke-linejoin:bevel"
       id="circle5"
       clip-path="url(#clipPath5)"
       d="m 432.5,380 a 115,115 0 0 1 -115,115 115,115 0 0 1 -115,-115 115,115 0 0 1 115,-115 115,115 0 0 1 115,115 z" /></g><g
     id="layer3"
     style="display:none"><circle
       style="fill:#000000;stroke-width:6.83175;stroke-linejoin:bevel"
       id="path3"
       cx="317.5"
       cy="380"
       r="115" /><path
       d="m 345.25453,382.32027 a 13.292327,13.292327 0 0 0 18.61671,-18.95181 l -37.36373,-36.74937 a 13.283019,13.283019 0 0 0 -18.6167,0 l -36.62837,36.01401 a 13.283019,13.283019 0 0 0 18.61671,18.9425 l 14.29763,-14.037 0.26994,56.46448 a 13.283451,13.283451 0 1 0 26.56604,-0.21409 l -0.26064,-55.7105 z"
       id="path1-4-7"
       style="fill:#e01b24;stroke-width:0.930835" /></g><g
     id="g4"
     style="display:none"><path
       style="fill:#000000;stroke-width:6.83175;stroke-linejoin:bevel"
       id="circle4"
       clip-path="url(#clipPath7)"
       d="m 432.5,380 a 115,115 0 0 1 -115,115 115,115 0 0 1 -115,-115 115,115 0 0 1 115,-115 115,115 0 0 1 115,115 z" /></g></svg>
