<?xml version="1.0" encoding="UTF-8" standalone="no"?>
<!-- Created with Inkscape (http://www.inkscape.org/) -->

<svg
   width="128"
   height="128"
   viewBox="0 0 33.866667 33.866667"
   version="1.1"
   id="svg1"
   xmlns="http://www.w3.org/2000/svg"
   xmlns:svg="http://www.w3.org/2000/svg"
   xmlns:rdf="http://www.w3.org/1999/02/22-rdf-syntax-ns#"
   xmlns:cc="http://creativecommons.org/ns#"
   xmlns:dc="http://purl.org/dc/elements/1.1/">
  <title
     id="title83">rstr icon</title>
  <defs
     id="defs1" />
  <g
     id="layer1">
    <circle
       style="fill:#ffffff;stroke:none;stroke-width:0.21886;stroke-dasharray:none"
       id="path83"
       cx="16.933332"
       cy="16.933332"
       r="16.933332" />
    <path
       id="path18"
       style="fill:#1a5fb4;fill-rule:nonzero;stroke:#ffffff;stroke-width:0.851213;stroke-linecap:butt;stroke-linejoin:bevel;stroke-dasharray:none;stroke-opacity:1"
       d="m 27.013672,1.375 c -0.05738,-0.00216 -0.105659,3.33e-4 -0.140625,0.00195 -0.665243,0.030823 -1.079725,0.4883909 -1.214844,0.6464844 -0.290751,0.2506747 -0.750916,0.4962637 -1.240234,0.6992188 -0.938455,0.3892432 -1.532198,0.5314615 -2.621094,0.8535156 -1.745595,0.4070447 -1.799999,0.4543609 -3.585938,0.7324218 -0.579378,0.090206 -1.18919,0.1572924 -1.824218,0.2421875 l -3.013672,0.4042969 5.091797,3.5878907 0.482422,-0.080078 c 1.377187,-0.2280793 2.774729,-0.4533622 4.171875,-0.7011719 -0.973503,1.5909629 -2.024684,3.1428123 -3.138672,4.6269533 -0.464132,0.618352 -0.929774,1.229046 -1.404297,1.826172 C 18.409183,13.985697 18.230384,13.735348 18.033203,13.453125 16.797056,11.683834 16.756028,11.490213 15.796875,9.6835938 15.201668,8.5624463 15.403558,8.9570632 14.998047,8.1523438 L 14.806641,7.7714844 6.6132812,4.1191406 9.4101563,7.8125 c 0.4726138,0.6242886 0.8637697,1.1356577 1.3085937,1.7714844 1.921759,2.7469366 0.702401,1.1661126 2.949219,4.1992186 1.255469,1.694827 1.617835,2.145206 2.501953,3.220703 -0.448452,0.486883 -0.903852,0.977922 -1.359375,1.480469 -0.424008,0.390083 -0.839466,0.782117 -1.25,1.167969 -0.310987,-0.497384 -0.613655,-0.974005 -0.880859,-1.44336 -1.03044,-1.810004 -1.87551,-3.713931 -2.400391,-5.683593 L 10.136719,11.984375 2.8535156,8.6289063 4.5058594,11.746094 c 1.1027427,2.078698 2.1915394,4.353467 3.4492187,6.46875 0.3944393,0.663404 0.841265,1.350636 1.2226563,1.96289 l 0.00977,0.01367 0.00977,0.01563 c 0.4552321,0.684789 0.9190954,1.365266 1.3964844,2.041016 -0.553441,0.437827 -1.1226617,0.869141 -1.6992187,1.300781 -1.7364759,1.300016 -3.533085,2.48373 -5.4375,3.382813 -0.1572646,0.07425 -0.3817383,0.154998 -0.6601563,0.267578 l -2.12304688,0.857422 5.98046878,3.873046 0.6796875,-0.736328 c 0.9066018,-0.982585 1.8617996,-1.933893 2.8398436,-2.876953 0.588947,-0.56788 1.363714,-1.255348 2,-1.898437 0.297775,-0.300959 0.59241,-0.604033 0.884766,-0.910157 0.05307,0.06498 0.106745,0.12866 0.160156,0.19336 0.405265,0.490921 0.742056,0.856713 1.132813,1.289062 l 0.0098,0.0098 0.0098,0.0098 c 0.310205,0.328061 0.665675,0.714608 1.03125,1.066406 0.06161,0.05929 0.359662,0.362806 0.652343,0.53125 1.186318,0.682755 2.40193,1.353737 3.576172,2.015625 l 0.158203,0.08984 0.175782,0.03711 c 0.400853,0.08701 0.215525,0.05092 0.613281,0.123047 l 4.880859,0.884765 -0.833984,-0.634765 0.351562,0.07422 -3.935546,-3.121094 c 8.34e-4,7.47e-4 -0.0127,-0.0084 -0.01953,-0.01367 -0.0052,-0.004 -0.0059,-0.0058 -0.01367,-0.01172 -0.03713,-0.02817 -0.09934,-0.07324 -0.15039,-0.103515 -0.127978,-0.07558 -0.262991,-0.155659 -0.396485,-0.234375 -0.241942,-0.199865 -0.671368,-0.648932 -1.058593,-0.986329 l -0.0293,-0.02734 c -0.456673,-0.446593 -0.836337,-0.812143 -1.257813,-1.257813 -0.855592,-0.904704 -1.671146,-1.846698 -2.441406,-2.822265 0.580959,-0.674664 1.156977,-1.358288 1.714844,-2.003907 0.316743,-0.364506 0.635185,-0.72804 0.955078,-1.089843 1.433007,1.561393 3.000451,3.102601 4.789062,4.367187 l 0.04297,0.03125 0.04687,0.02734 c 1.191327,0.690171 2.381938,1.378768 3.572266,2.068359 l 1.345703,-1.958984 -0.515625,-0.416016 0.242187,-0.40625 c -0.219674,-0.132692 -0.409697,-0.240714 -0.558593,-0.33789 -1.015127,-0.662524 -1.981121,-1.44418 -2.916016,-2.28125 -0.497656,-0.445582 -0.980585,-0.888602 -1.4375,-1.341797 -0.530488,-0.526172 -1.055254,-1.099902 -1.611328,-1.681641 -0.222647,-0.26154 -0.425773,-0.498387 -0.613281,-0.716797 2.001571,-2.178735 4.054365,-4.315922 6.134765,-6.429687 0.345578,-0.35112 0.693791,-0.7015716 1.042969,-1.0527346 0.08629,0.3381391 0.191405,0.7533896 0.335938,1.3105466 0.0012,0.0051 0.0027,0.0086 0.0039,0.01367 v 0.0039 c 0.001,0.0039 0.0029,0.0078 0.0039,0.01172 0.399607,1.731433 0.715398,3.47914 0.933594,5.236328 0.04104,0.330449 0.07049,0.683945 0.109375,1.058594 l 0.06836,0.660156 5.861328,2.84375 -0.742187,-2.570312 C 33.829684,15.706067 33.195762,13.461251 32.701172,11.207031 32.233748,9.0624357 32.210637,9.1216841 31.890625,7.0566406 31.818171,6.5891029 31.752633,6.1264401 31.703125,5.6679687 31.654416,5.2168835 31.64088,4.8502247 31.691406,4.5664062 L 31.845703,3.6972656 27.388672,1.4257812 27.208984,1.3945312 C 27.137345,1.3825205 27.071048,1.3771594 27.013672,1.375 Z"
       transform="matrix(0.95039918,0,0,0.97896268,-0.29350968,0.18148677)" />
  </g>
  <metadata
     id="metadata83">
    <rdf:RDF>
      <cc:Work
         rdf:about="">
        <dc:title>rstr icon</dc:title>
      </cc:Work>
    </rdf:RDF>
  </metadata>
</svg>
