<?xml version="1.0" encoding="UTF-8" standalone="no"?>
<!-- Created with Inkscape (http://www.inkscape.org/) -->

<svg
   width="228.37294"
   height="83.121223"
   viewBox="0 0 60.423676 21.992491"
   version="1.1"
   id="svg1"
   xmlns="http://www.w3.org/2000/svg"
   xmlns:svg="http://www.w3.org/2000/svg"
   xmlns:rdf="http://www.w3.org/1999/02/22-rdf-syntax-ns#"
   xmlns:cc="http://creativecommons.org/ns#"
   xmlns:dc="http://purl.org/dc/elements/1.1/">
  <title
     id="title83">rstr icon</title>
  <defs
     id="defs1">
    <rect
       x="120.91526"
       y="304.76303"
       width="175.36247"
       height="43.133511"
       id="rect2" />
    <rect
       x="190"
       y="20"
       width="237"
       height="84"
       id="rect1" />
  </defs>
  <g
     id="layer1"
     transform="translate(1.2978674,0.2865878)">
    <g
       id="g87"
       transform="matrix(0.64393542,0,0,0.64393542,-0.18947549,-0.10204367)">
      <circle
         style="display:inline;fill:#ffffff;stroke:none;stroke-width:0.21886;stroke-dasharray:none"
         id="path83"
         cx="16.933332"
         cy="16.933332"
         r="16.933332" />
      <path
         id="path18-1"
         style="display:none;fill:#5e5c64;fill-rule:nonzero;stroke:#5e5c64;stroke-width:0.851213;stroke-linecap:butt;stroke-linejoin:bevel;stroke-dasharray:none;stroke-opacity:1"
         d="m 27.037109,0.71679687 c -0.08121,-0.003061 -0.148036,-2.3727e-4 -0.195312,0.001953 -0.90123,0.0417561 -1.466812,0.6239487 -1.650391,0.8359375 -0.210772,0.1683336 -0.590207,0.3780923 -1.02539,0.5585938 -0.894618,0.3710606 -1.448655,0.5045747 -2.53711,0.8261718 -1.734139,0.4046414 -1.750232,0.4432797 -3.519531,0.71875 -0.559866,0.087168 -1.165321,0.153976 -1.810547,0.2402344 l -4.68164,0.6269531 6.689453,4.7109375 0.748046,-0.1230468 c 0.894526,-0.1481446 1.805227,-0.2968349 2.720704,-0.4511719 -0.736425,1.1393133 -1.513444,2.2525026 -2.322266,3.3300786 -0.283816,0.378121 -0.566236,0.753679 -0.851563,1.123046 -0.0092,-0.01317 -0.01804,-0.0277 -0.02734,-0.04101 C 17.348134,11.31933 17.343018,11.19096 16.378906,9.375 15.782718,8.2520045 15.992045,8.6613721 15.585938,7.8554687 L 15.289063,7.265625 4.5410156,2.4746094 l 4.34375,5.7363281 c 0.4742816,0.6264914 0.859415,1.1274917 1.2949224,1.75 1.944092,2.7788595 0.674675,1.1311265 2.958984,4.2148435 1.082879,1.461838 1.504626,2.002906 2.158203,2.802735 -0.31558,0.341349 -0.634454,0.68757 -0.955078,1.041015 -0.217508,0.200323 -0.433089,0.403281 -0.646484,0.603516 -0.156581,-0.252743 -0.306462,-0.499769 -0.44336,-0.740235 -1.008793,-1.771981 -1.829058,-3.625235 -2.335937,-5.527343 L 10.693359,11.515625 1.3574219,7.2148437 3.9238281,12.054688 c 1.0766339,2.029481 2.2072038,4.380877 3.4648438,6.496093 0.4038238,0.679188 0.8541271,1.370462 1.2304687,1.97461 l 0.013672,0.02344 0.015625,0.02148 c 0.3429594,0.515901 0.6910228,1.032402 1.046875,1.544922 C 9.3039147,22.417516 8.9047921,22.718436 8.5,23.021484 6.7842008,24.30602 5.0231825,25.463771 3.1757813,26.335937 c -0.1144165,0.05402 -0.3257094,0.130934 -0.625,0.251954 l -3.29882817,1.333984 7.50976557,4.863281 1.0566407,-1.146484 c 0.8937894,-0.968699 1.8393125,-1.909279 2.8124996,-2.847656 0.57521,-0.554634 1.353249,-1.246619 2.009766,-1.910157 0.127837,-0.129203 0.255975,-0.258518 0.382813,-0.388672 0.287916,0.333536 0.554069,0.623261 0.839843,0.939454 l 0.01367,0.01563 0.01563,0.01563 c 0.306501,0.324143 0.66887,0.718492 1.052735,1.08789 0.05058,0.04867 0.449943,0.43628 0.78125,0.626953 1.192996,0.686599 2.411104,1.359513 3.582031,2.019532 l 0.242187,0.136718 0.273438,0.06055 c 0.419456,0.09105 0.218858,0.05118 0.636718,0.126953 l 5.646485,1.023438 -3.984375,-4.128906 c -0.339301,-0.351549 -0.84995,-0.864532 -1.064453,-1.064454 l -0.07031,-0.06641 -0.07813,-0.05664 c -0.09582,-0.07224 -0.766035,-0.728295 -1.08789,-1.011719 -0.454053,-0.443965 -0.822081,-0.79875 -1.228516,-1.228516 -0.718394,-0.759629 -1.407144,-1.543787 -2.064453,-2.353515 0.459118,-0.536522 0.910171,-1.070282 1.357422,-1.587891 0.156557,-0.180165 0.313354,-0.35956 0.470703,-0.539063 1.315703,1.396155 2.758084,2.764873 4.394531,3.921875 l 0.06836,0.04883 0.07227,0.04297 c 1.191458,0.690247 2.38236,1.379013 3.572266,2.06836 l 3.076172,1.78125 -0.304688,-3.541016 c -0.02686,-0.311593 -0.06229,-2.147806 -1.140625,-2.851562 -0.976787,-0.637502 -1.91892,-1.399845 -2.837891,-2.222657 -0.536578,-0.480431 -1.452234,-1.053601 -1.810546,-1.332031 -0.696589,-0.54129 -1.270147,-0.923911 -1.619141,-1.275391 -0.0742,-0.08713 -0.146876,-0.172118 -0.216797,-0.253906 1.869577,-2.023462 3.783293,-4.013908 5.722656,-5.984375 0.07421,-0.0754 0.148194,-0.149197 0.222657,-0.224609 0.01419,0.05493 0.02987,0.111867 0.04492,0.169922 0.0018,0.0079 0.004,0.01553 0.0059,0.02344 0.395657,1.713313 0.708354,3.440513 0.923828,5.175781 0.039,0.314086 0.0697,0.662653 0.109375,1.044922 l 0.105469,1.023438 7.523437,3.65039 -1.154297,-3.992187 C 34.46319,15.52487 33.834485,13.29415 33.345703,11.066406 32.876824,8.9151316 32.859905,9.012879 32.541016,6.9550781 32.469607,6.4942896 32.407438,6.0407973 32.359375,5.5957031 32.312327,5.1600011 32.308257,4.8590704 32.339844,4.6816406 l 0.240234,-1.3496093 -4.982422,-2.53906255 -0.279297,-0.046875 c -0.1034,-0.0173359 -0.200038,-0.0262357 -0.28125,-0.0292969 z"
         transform="matrix(0.9381045,0,0,0.96629848,1.0757703,0.55719266)" />
      <path
         id="path18"
         style="fill:#1a5fb4;fill-rule:nonzero;stroke:#ffffff;stroke-width:0.851213;stroke-linecap:butt;stroke-linejoin:bevel;stroke-dasharray:none;stroke-opacity:1"
         d="m 27.037109,0.71679687 c -0.08121,-0.003061 -0.148036,-2.3727e-4 -0.195312,0.001953 -0.90123,0.041756 -1.466812,0.6239487 -1.650391,0.8359375 -0.210772,0.1683337 -0.590207,0.3780923 -1.02539,0.5585938 -0.894618,0.3710606 -1.448655,0.5045747 -2.53711,0.8261718 -1.734139,0.4046414 -1.750232,0.4432797 -3.519531,0.71875 -0.559866,0.087168 -1.165321,0.153976 -1.810547,0.2402344 l -4.68164,0.6269531 6.689453,4.7109375 0.748046,-0.1230468 c 0.894526,-0.1481446 1.805227,-0.2968349 2.720704,-0.4511719 -0.736425,1.1393133 -1.513444,2.2525026 -2.322266,3.3300786 -0.283816,0.378121 -0.566236,0.753679 -0.851563,1.123046 -0.0092,-0.01317 -0.01804,-0.0277 -0.02734,-0.04101 C 17.348134,11.31933 17.343018,11.190959 16.378906,9.375 15.782718,8.2520045 15.992045,8.6613721 15.585938,7.8554687 L 15.289063,7.265625 4.5410156,2.4746094 l 4.34375,5.7363281 c 0.4742816,0.6264914 0.859415,1.1274917 1.2949224,1.75 1.944092,2.7788595 0.674675,1.1311265 2.958984,4.2148435 1.082879,1.461838 1.504626,2.002906 2.158203,2.802735 -0.31558,0.341349 -0.634454,0.68757 -0.955078,1.041015 -0.217508,0.200323 -0.433089,0.403281 -0.646484,0.603516 -0.156581,-0.252743 -0.306462,-0.499769 -0.44336,-0.740235 -1.008793,-1.771981 -1.829058,-3.625235 -2.335937,-5.527343 L 10.693359,11.515625 1.3574219,7.2148437 3.9238281,12.054688 c 1.0766339,2.029481 2.2072038,4.380877 3.4648438,6.496093 0.4038238,0.679188 0.8541271,1.370462 1.2304687,1.97461 l 0.013672,0.02344 0.015625,0.02148 c 0.3429594,0.515901 0.6910228,1.032402 1.046875,1.544922 C 9.3039147,22.417516 8.9047921,22.718436 8.5,23.021484 6.7842008,24.30602 5.0231825,25.463771 3.1757813,26.335937 c -0.1144165,0.05402 -0.3257094,0.130934 -0.625,0.251954 l -3.29882817,1.333984 7.50976557,4.863281 1.0566407,-1.146484 c 0.8937894,-0.968699 1.8393125,-1.909279 2.8124996,-2.847656 0.57521,-0.554634 1.353249,-1.246619 2.009766,-1.910157 0.127837,-0.129203 0.255975,-0.258518 0.382813,-0.388672 0.287916,0.333536 0.554069,0.623261 0.839843,0.939454 l 0.01367,0.01563 0.01563,0.01563 c 0.306501,0.324143 0.66887,0.718492 1.052735,1.08789 0.05058,0.04867 0.449943,0.43628 0.78125,0.626953 1.192996,0.686599 2.411104,1.359513 3.582031,2.019532 l 0.242187,0.136718 0.273438,0.06055 c 0.419456,0.09105 0.218858,0.05118 0.636718,0.126953 l 5.646485,1.023438 -3.984375,-4.128906 c -0.339301,-0.351549 -0.84995,-0.864532 -1.064453,-1.064454 l -0.07031,-0.06641 -0.07813,-0.05664 c -0.09582,-0.07224 -0.766035,-0.728295 -1.08789,-1.011719 -0.454053,-0.443965 -0.822081,-0.79875 -1.228516,-1.228516 -0.718394,-0.759629 -1.407144,-1.543787 -2.064453,-2.353515 0.459118,-0.536522 0.910171,-1.070282 1.357422,-1.587891 0.156557,-0.180165 0.313354,-0.35956 0.470703,-0.539063 1.315703,1.396155 2.758084,2.764873 4.394531,3.921875 l 0.06836,0.04883 0.07227,0.04297 c 1.191458,0.690247 2.38236,1.379013 3.572266,2.06836 l 3.076172,1.78125 -0.304688,-3.541016 c -0.02686,-0.311593 -0.06229,-2.147806 -1.140625,-2.851562 -0.976787,-0.637502 -1.91892,-1.399844 -2.837891,-2.222657 -0.536578,-0.480431 -1.452234,-1.053601 -1.810546,-1.332031 -0.696589,-0.54129 -1.270147,-0.923911 -1.619141,-1.275391 -0.0742,-0.08713 -0.146876,-0.172118 -0.216797,-0.253906 1.869577,-2.023462 3.783293,-4.013908 5.722656,-5.984375 0.07421,-0.0754 0.148194,-0.149197 0.222657,-0.224609 0.01419,0.05493 0.02987,0.111867 0.04492,0.169922 0.0018,0.0079 0.004,0.01553 0.0059,0.02344 0.395657,1.713313 0.708354,3.440513 0.923828,5.175781 0.039,0.314086 0.0697,0.662653 0.109375,1.044922 l 0.105469,1.023438 7.523437,3.65039 -1.154297,-3.992187 C 34.46319,15.52487 33.834485,13.29415 33.345703,11.066406 32.876824,8.9151316 32.859905,9.012879 32.541016,6.9550781 32.469607,6.4942896 32.407438,6.0407973 32.359375,5.5957031 32.312327,5.1600011 32.308257,4.8590704 32.339844,4.6816406 l 0.240234,-1.3496093 -4.982422,-2.53906255 -0.279297,-0.046875 c -0.1034,-0.0173359 -0.200038,-0.0262357 -0.28125,-0.0292969 z"
         transform="matrix(0.95039918,0,0,0.97896267,-0.79046384,-0.17661252)" />
    </g>
    <text
       xml:space="preserve"
       transform="matrix(0.31817616,0,0,0.31817616,-36.665107,-10.694379)"
       id="text1"
       style="font-style:normal;font-variant:normal;font-weight:normal;font-stretch:normal;font-size:64px;font-family:Arial;-inkscape-font-specification:Arial;text-align:start;writing-mode:lr-tb;direction:ltr;white-space:pre;shape-inside:url(#rect1);display:inline;fill:#ffffff;stroke:none;stroke-width:3.093;stroke-linecap:round;stroke-linejoin:round"><tspan
         x="190"
         y="77.648283"
         id="tspan3"><tspan
           style="font-family:'DejaVu Sans';-inkscape-font-specification:'DejaVu Sans'"
           id="tspan2">rstr</tspan></tspan></text>
    <text
       xml:space="preserve"
       transform="matrix(0.20633662,0,0,0.20633662,0.3198912,-46.003801)"
       id="text2"
       style="font-style:normal;font-variant:normal;font-weight:normal;font-stretch:normal;font-size:21.3333px;font-family:'DejaVu Sans';-inkscape-font-specification:'DejaVu Sans';text-align:start;writing-mode:lr-tb;direction:ltr;white-space:pre;shape-inside:url(#rect2);display:inline;fill:#ffffff;stroke:none;stroke-width:3.093;stroke-linecap:round;stroke-linejoin:round"><tspan
         x="120.91602"
         y="323.63864"
         id="tspan4">HTTP file relay </tspan></text>
  </g>
  <metadata
     id="metadata83">
    <rdf:RDF>
      <cc:Work
         rdf:about="">
        <dc:title>rstr icon</dc:title>
      </cc:Work>
    </rdf:RDF>
  </metadata>
</svg>
